<svg xmlns="http://www.w3.org/2000/svg" fill="none" width="18" height="18" viewBox="0 0 36 26"><path d="m29.857 22.126c0 0.1758-0.1386 0.3-0.2857 0.3h-13.636c-0.6055 0-1.1901 0.2396-1.6202 0.6779-7e-4 8e-4 -0.0015 0.0016-0.0022 0.0023l-1.7911 1.811c-0.0528 0.0534-0.124 0.0828-0.1967 0.0828h-4.0783c-0.07274 0-0.14391-0.0294-0.19671-0.0828l-1.7949-1.8148c-0.42912-0.4339-1.009-0.6764-1.6187-0.6764h-3.3506c-0.14704 0-0.28571-0.1242-0.28571-0.3v-7.826c0-0.1758 0.13867-0.3 0.28571-0.3h3.3249c0.07274 0 0.14391 0.0294 0.19671 0.0828l1.8206 1.8408c0.42549 0.4302 1.0075 0.6764 1.6187 0.6764h4.0783c0.6112 0 1.1932-0.2462 1.6187-0.6764l1.8205-1.8408c0.0528-0.0534 0.124-0.0828 0.1968-0.0828h13.61c0.1471 0 0.2857 0.1242 0.2857 0.3v7.826zm5.1429-13c0 0.17576-0.1387 0.3-0.2857 0.3h-18.779c-0.6056 0-1.1902 0.23969-1.6203 0.678-7e-4 8e-4 -0.0014 0.0015-0.0021 0.0022l-1.7911 1.811c-0.0528 0.0534-0.124 0.0828-0.1967 0.0828h-4.0783c-0.07274 0-0.14391-0.0294-0.19671-0.0828l-1.7949-1.8148c-0.42912-0.43388-1.009-0.6764-1.6187-0.6764h-3.3506c-0.14704 0-0.28571-0.12424-0.28571-0.3v-7.826c0-0.17576 0.13867-0.3 0.28571-0.3h3.3249c0.07274 0 0.14391 0.0294 0.19671 0.08279l1.8206 1.8408c0.42549 0.43021 1.0075 0.67641 1.6187 0.67641h4.0783c0.6112 0 1.1932-0.2462 1.6187-0.67641l1.8205-1.8408c0.0528-0.05339 0.124-0.08279 0.1968-0.08279h18.753c0.147 0 0.2857 0.12424 0.2857 0.3v7.826z" stroke-width="2" stroke="#F0F0F0"/></svg>