<svg xmlns="http://www.w3.org/2000/svg" version="1.1" xmlns:xlink="http://www.w3.org/1999/xlink" width="512" height="512" x="0" y="0" viewBox="0 0 24 24" style="enable-background:new 0 0 512 512" xml:space="preserve" class=""><g><path d="M20 21.75H4c-1.52 0-2.75-1.23-2.75-2.75V5c0-1.52 1.23-2.75 2.75-2.75h16c1.52 0 2.75 1.23 2.75 2.75v14c0 1.52-1.23 2.75-2.75 2.75zm-16-18c-.69 0-1.25.56-1.25 1.25v14c0 .69.56 1.25 1.25 1.25h16c.69 0 1.25-.56 1.25-1.25V5c0-.69-.56-1.25-1.25-1.25zm2.79 12.52 3.74-3.74c.29-.29.29-.77 0-1.06L6.79 7.73c-.29-.29-.77-.29-1.06 0s-.29.77 0 1.06L8.94 12l-3.21 3.21c-.29.29-.29.77 0 1.06.15.15.34.22.53.22s.38-.07.53-.22zm11.96-.53c0-.41-.34-.75-.75-.75h-6c-.41 0-.75.34-.75.75s.34.75.75.75h6c.41 0 .75-.34.75-.75z" fill="#F0F0F0" opacity="1"></path></g></svg>