<svg xmlns="http://www.w3.org/2000/svg" width="512" height="512" viewBox="0 0 512 512" fill="none">
<path d="M306 75V247L423.709 400.928C431.681 411.352 436 424.11 436 437.233C436 470.241 409.241 497 376.233 497H135.767C102.759 497 76 470.241 76 437.233C75.9998 424.11 80.3191 411.352 88.291 400.928L206 247V75M306 75H206M306 75C322.569 75 336 61.569 336 45C336 28.431 322.569 15 306 15H206C189.431 15 176 28.431 176 45C176 61.569 189.431 75 206 75" stroke="#F0F0F0" stroke-width="30" stroke-miterlimit="10" stroke-linecap="round" stroke-linejoin="round"/>
<path d="M374.309 336.327L373 337C354.9 346.294 334.847 351.142 314.5 351.142C294.154 351.142 274.1 346.294 256 337C237.9 327.706 217.847 322.858 197.501 322.858C177.154 322.858 157.101 327.706 139.001 337L135.998 338.542" stroke="#F0F0F0" stroke-width="30" stroke-miterlimit="10" stroke-linecap="round" stroke-linejoin="round"/>
</svg>