<svg xmlns="http://www.w3.org/2000/svg" version="1.1" xmlns:xlink="http://www.w3.org/1999/xlink" width="512" height="512" x="0" y="0" viewBox="0 0 32 32" style="enable-background:new 0 0 512 512" xml:space="preserve" class=""><g><path d="M12 5H2a1 1 0 0 0-1 1v10a1 1 0 0 0 1 1h10a1 1 0 0 0 1-1V6a1 1 0 0 0-1-1zm-1 10H3V7h8zm19.778-6.707-7.071-7.071a1 1 0 0 0-1.414 0l-7.071 7.071a1 1 0 0 0 0 1.414l7.071 7.071a1 1 0 0 0 1.414 0l7.071-7.071a1 1 0 0 0 0-1.414zM23 14.657 17.343 9 23 3.343 28.657 9zM12 19H2a1 1 0 0 0-1 1v10a1 1 0 0 0 1 1h10a1 1 0 0 0 1-1V20a1 1 0 0 0-1-1zm-1 10H3v-8h8zm15-10H16a1 1 0 0 0-1 1v10a1 1 0 0 0 1 1h10a1 1 0 0 0 1-1V20a1 1 0 0 0-1-1zm-1 10h-8v-8h8z" fill="#F0F0F0"></path></g></svg>