<svg width="20" height="20" viewBox="0 0 100 100" fill="none" xmlns="http://www.w3.org/2000/svg">
<path fill-rule="evenodd" clip-rule="evenodd" d="M76.737 36.7822C76.7422 36.785 76.7486 36.785 76.7538 36.7821C76.7593 36.7791 76.7626 36.7735 76.7626 36.7675L76.7626 13.5298C76.7626 12.1434 76.0028 10.8758 74.7638 10.1954L59.7095 1.92832C56.9935 0.436812 53.5596 2.39354 53.5596 5.43271L53.5596 21.8175C53.5596 23.2039 54.3195 24.4715 55.5584 25.1519L76.737 36.7822Z" fill="url(#paint0_linear_64_62)"/>
<path fill-rule="evenodd" clip-rule="evenodd" d="M23.2373 36.7822C23.2321 36.785 23.2257 36.785 23.2204 36.7821C23.215 36.7791 23.2116 36.7735 23.2116 36.7675L23.2116 13.5298C23.2116 12.1434 23.9715 10.8758 25.2105 10.1954L40.2647 1.92833C42.9808 0.436812 46.4147 2.39354 46.4147 5.43271L46.4147 21.8175C46.4147 23.2039 45.6548 24.4715 44.4158 25.1519L23.2373 36.7822Z" fill="url(#paint1_linear_64_62)"/>
<path fill-rule="evenodd" clip-rule="evenodd" d="M23.2203 36.797C23.2203 36.7907 23.2169 36.7849 23.2114 36.7819C23.2062 36.7791 23.2 36.7791 23.1948 36.7819L2.07461 48.3801C0.795139 49.0828 2.26319e-06 50.4266 2.50526e-06 51.8863L5.21795e-06 68.2435C5.72231e-06 71.2847 3.25965 73.2135 5.9254 71.7496L21.1457 63.3913C22.4251 62.6887 23.2203 61.3449 23.2203 59.8852L23.2203 36.797Z" fill="url(#paint2_linear_64_62)"/>
<path fill-rule="evenodd" clip-rule="evenodd" d="M49.9704 80.8654C49.9755 80.8682 49.9786 80.8735 49.9786 80.8792C49.9786 80.8851 49.9753 80.8907 49.9699 80.8936L28.812 92.5125C27.5498 93.2057 26.0157 93.2136 24.7767 92.5332L9.72242 84.2661C7.0064 82.7746 7.07103 78.9676 9.83817 77.448L24.7563 69.2557C26.0185 68.5625 27.5526 68.5546 28.7916 69.235L49.9704 80.8654Z" fill="url(#paint3_linear_64_62)"/>
<path fill-rule="evenodd" clip-rule="evenodd" d="M50.0296 80.8654C50.0245 80.8683 50.0214 80.8735 50.0214 80.8792C50.0214 80.8851 50.0247 80.8907 50.0301 80.8936L71.188 92.5125C72.4502 93.2057 73.9843 93.2136 75.2233 92.5332L90.2776 84.2661C92.9936 82.7746 92.929 78.9676 90.1618 77.448L75.2438 69.2557C73.9815 68.5625 72.4474 68.5546 71.2084 69.235L50.0296 80.8654Z" fill="url(#paint4_linear_64_62)"/>
<path fill-rule="evenodd" clip-rule="evenodd" d="M76.7797 36.797C76.7797 36.7907 76.7831 36.7849 76.7886 36.7819C76.7938 36.7791 76.8 36.7791 76.8052 36.7819L97.9254 48.3801C99.2049 49.0828 100 50.4266 100 51.8863L100 68.2435C100 71.2847 96.7404 73.2135 94.0746 71.7496L78.8543 63.3913C77.5749 62.6887 76.7797 61.3449 76.7797 59.8852L76.7797 36.797Z" fill="url(#paint5_linear_64_62)"/>
<path d="M48.0875 38.684C49.2866 38.0255 50.7392 38.0255 51.9383 38.684L60.3133 43.2832C61.5927 43.9858 62.3879 45.3296 62.3879 46.7893V55.6472C62.3879 57.1069 61.5927 58.4507 60.3133 59.1533L51.9383 63.7524C50.7392 64.4109 49.2866 64.4109 48.0875 63.7524L39.7125 59.1533C38.4331 58.4506 37.6379 57.1069 37.6379 55.6472V46.7893C37.6379 45.3296 38.4331 43.9858 39.7125 43.2832L48.0875 38.684Z" fill="url(#paint6_linear_64_62)"/>
<defs>
<linearGradient id="paint0_linear_64_62" x1="82.5567" y1="27.2265" x2="51.2181" y2="8.20417" gradientUnits="userSpaceOnUse">
<stop stop-color="#CB2964"/>
<stop offset="1" stop-color="#9F1339"/>
</linearGradient>
<linearGradient id="paint1_linear_64_62" x1="17.4175" y1="27.2265" x2="48.7561" y2="8.20417" gradientUnits="userSpaceOnUse">
<stop stop-color="#CB2964"/>
<stop offset="1" stop-color="#9F1339"/>
</linearGradient>
<linearGradient id="paint2_linear_64_62" x1="11.6101" y1="36.7798" x2="11.6101" y2="72.2492" gradientUnits="userSpaceOnUse">
<stop stop-color="#CB2964"/>
<stop offset="1" stop-color="#9F1339"/>
</linearGradient>
<linearGradient id="paint3_linear_64_62" x1="44.1798" y1="90.437" x2="12.8412" y2="71.4146" gradientUnits="userSpaceOnUse">
<stop stop-color="#CB2964"/>
<stop offset="1" stop-color="#9F1339"/>
</linearGradient>
<linearGradient id="paint4_linear_64_62" x1="55.8202" y1="90.437" x2="87.1588" y2="71.4146" gradientUnits="userSpaceOnUse">
<stop stop-color="#CB2964"/>
<stop offset="1" stop-color="#9F1339"/>
</linearGradient>
<linearGradient id="paint5_linear_64_62" x1="88.3899" y1="36.7798" x2="88.3899" y2="72.2491" gradientUnits="userSpaceOnUse">
<stop stop-color="#CB2964"/>
<stop offset="1" stop-color="#9F1339"/>
</linearGradient>
<linearGradient id="paint6_linear_64_62" x1="50.0129" y1="37.6267" x2="50.0129" y2="64.8098" gradientUnits="userSpaceOnUse">
<stop stop-color="#CB2964"/>
<stop offset="1" stop-color="#9F1339"/>
</linearGradient>
</defs>
</svg>
