<svg width="20" height="20" viewBox="0 0 100 100" fill="none" xmlns="http://www.w3.org/2000/svg">
<mask id="path-1-inside-1_64_42" fill="white">
<path fill-rule="evenodd" clip-rule="evenodd" d="M76.7369 36.7821C76.742 36.7849 76.7484 36.7849 76.7537 36.782C76.7592 36.779 76.7625 36.7735 76.7625 36.7675L76.7625 13.5297C76.7625 12.1434 76.0027 10.8758 74.7637 10.1954L59.7094 1.92826C56.9934 0.436749 53.5595 2.39348 53.5595 5.43265L53.5595 21.8175C53.5595 23.2038 54.3193 24.4714 55.5583 25.1518L76.7369 36.7821Z"/>
</mask>
<path d="M55.5583 25.1518L57.6339 21.7324L55.5583 25.1518ZM53.5595 5.43265L57.6339 5.34763L53.5595 5.43265ZM76.7625 13.5297L80.8369 13.4447L76.7625 13.5297ZM76.7369 36.7821L74.6613 40.2015L76.7369 36.7821ZM76.7625 36.7675L72.6881 36.8525L76.7625 36.7675ZM72.6881 13.6148L72.6881 36.8525L80.8369 36.6825L80.8369 13.4447L72.6881 13.6148ZM57.6339 5.34764L72.6881 13.6148L76.8392 6.776L61.7849 -1.49111L57.6339 5.34764ZM57.6339 21.7324L57.6339 5.34763L49.4851 5.51767L49.4851 21.9025L57.6339 21.7324ZM53.4828 28.5712L74.6613 40.2015L78.8124 33.3627L57.6339 21.7324L53.4828 28.5712ZM49.4851 21.9025C49.4851 24.6752 51.0048 27.2104 53.4828 28.5712L57.6339 21.7324L49.4851 21.9025ZM61.7849 -1.49111C56.3529 -4.47413 49.4851 -0.560691 49.4851 5.51767L57.6339 5.34763L57.6339 5.34764L61.7849 -1.49111ZM80.8369 13.4447C80.8369 10.672 79.3172 8.13677 76.8392 6.776L72.6881 13.6148L72.6881 13.6148L80.8369 13.4447ZM74.7939 33.3833C76.051 32.693 77.5787 32.6852 78.8124 33.3627L74.6613 40.2015C75.9054 40.8847 77.4459 40.8769 78.7135 40.1807L74.7939 33.3833ZM78.7135 40.1807C80.0231 39.4615 80.8369 38.1205 80.8369 36.6825L72.6881 36.8525C72.6881 35.4264 73.4952 34.0965 74.7939 33.3833L78.7135 40.1807Z" fill="#F0F0F0" mask="url(#path-1-inside-1_64_42)"/>
<mask id="path-3-inside-2_64_42" fill="white">
<path fill-rule="evenodd" clip-rule="evenodd" d="M23.2373 36.7821C23.2321 36.7849 23.2257 36.7849 23.2205 36.782C23.215 36.779 23.2116 36.7735 23.2116 36.7675L23.2116 13.5297C23.2116 12.1434 23.9715 10.8758 25.2105 10.1954L40.2648 1.92826C42.9808 0.43675 46.4147 2.39348 46.4147 5.43265L46.4147 21.8175C46.4147 23.2038 45.6548 24.4714 44.4159 25.1518L23.2373 36.7821Z"/>
</mask>
<path d="M46.4147 21.8175L42.3403 21.7324L46.4147 21.8175ZM46.4147 5.43265L42.3403 5.34763L46.4147 5.43265ZM23.2116 36.7675L19.1372 36.6825L23.2116 36.7675ZM27.286 13.6148L27.286 36.8525L19.1372 36.6825L19.1372 13.4447L27.286 13.6148ZM42.3403 5.34764L27.286 13.6148L23.135 6.776L38.1892 -1.49111L42.3403 5.34764ZM42.3403 21.7324L42.3403 5.34763L50.4891 5.51767L50.4891 21.9025L42.3403 21.7324ZM46.4914 28.5712L25.3129 40.2015L21.1618 33.3627L42.3403 21.7324L46.4914 28.5712ZM50.4891 21.9025C50.4891 24.6752 48.9694 27.2104 46.4914 28.5712L42.3403 21.7324L50.4891 21.9025ZM38.1892 -1.49111C43.6213 -4.47413 50.4891 -0.560691 50.4891 5.51767L42.3403 5.34763L42.3403 5.34764L38.1892 -1.49111ZM19.1372 13.4447C19.1372 10.672 20.657 8.13677 23.135 6.776L27.286 13.6148L27.286 13.6148L19.1372 13.4447ZM25.1803 33.3833C23.9232 32.693 22.3955 32.6852 21.1618 33.3627L25.3129 40.2015C24.0688 40.8847 22.5283 40.8769 21.2607 40.1807L25.1803 33.3833ZM21.2607 40.1807C19.951 39.4615 19.1372 38.1205 19.1372 36.6825L27.286 36.8525C27.286 35.4264 26.479 34.0965 25.1803 33.3833L21.2607 40.1807Z" fill="#F0F0F0" mask="url(#path-3-inside-2_64_42)"/>
<mask id="path-5-inside-3_64_42" fill="white">
<path fill-rule="evenodd" clip-rule="evenodd" d="M23.2203 36.7967C23.2203 36.7905 23.2169 36.7847 23.2114 36.7817C23.2062 36.7788 23.2 36.7788 23.1948 36.7817L2.07461 48.3799C0.795139 49.0825 2.26315e-06 50.4263 2.50523e-06 51.886L5.21791e-06 68.2432C5.72228e-06 71.2845 3.25965 73.2133 5.9254 71.7493L21.1457 63.3911C22.4251 62.6885 23.2203 61.3447 23.2203 59.885L23.2203 36.7967Z"/>
</mask>
<path d="M5.9254 71.7493L4.00001 68.2432L5.9254 71.7493ZM23.1948 36.7817L25.1202 40.2878L23.1948 36.7817ZM4 51.886L25.1202 40.2878L21.2694 33.2756L0.149209 44.8738L4 51.886ZM4.00001 68.2432L4 51.886L-4 51.886L-3.99999 68.2432L4.00001 68.2432ZM19.2203 59.885L4.00001 68.2432L7.8508 75.2555L23.0711 66.8972L19.2203 59.885ZM27.2203 59.885L27.2203 36.7967L19.2203 36.7967L19.2203 59.885L27.2203 59.885ZM23.0711 66.8972C25.63 65.4919 27.2203 62.8044 27.2203 59.885L19.2203 59.885L23.0711 66.8972ZM-3.99999 68.2432C-3.99999 74.3258 2.51929 78.1833 7.8508 75.2555L4.00001 68.2432L4.00001 68.2432L-3.99999 68.2432ZM0.149209 44.8738C-2.40972 46.279 -4 48.9666 -4 51.886L4 51.886L4 51.886L0.149209 44.8738ZM21.286 40.2878C20.0121 39.5883 19.2203 38.2503 19.2203 36.7967L27.2203 36.7967C27.2203 35.3306 26.4216 33.9811 25.1368 33.2756L21.286 40.2878ZM25.1368 33.2756C23.9325 32.6143 22.4738 32.6142 21.2694 33.2756L25.1202 40.2878C23.9261 40.9435 22.4799 40.9434 21.286 40.2878L25.1368 33.2756Z" fill="#F0F0F0" mask="url(#path-5-inside-3_64_42)"/>
<mask id="path-7-inside-4_64_42" fill="white">
<path fill-rule="evenodd" clip-rule="evenodd" d="M49.9703 80.8654C49.9754 80.8682 49.9786 80.8734 49.9786 80.8792C49.9786 80.8851 49.9752 80.8906 49.9698 80.8936L28.812 92.5125C27.5497 93.2057 26.0156 93.2135 24.7766 92.5332L9.72236 84.266C7.00634 82.7745 7.07096 78.9675 9.83811 77.448L24.7562 69.2556C26.0185 68.5625 27.5526 68.5546 28.7915 69.235L49.9703 80.8654Z"/>
</mask>
<path d="M24.7562 69.2556L26.716 72.6544L24.7562 69.2556ZM49.9698 80.8936L48.01 77.4949L49.9698 80.8936ZM26.8522 89.1138L48.01 77.4949L51.9296 84.2923L30.7718 95.9112L26.8522 89.1138ZM11.7979 80.8467L26.8522 89.1138L22.7011 95.9525L7.64682 87.6854L11.7979 80.8467ZM26.716 72.6544L11.7979 80.8467L7.87832 74.0492L22.7964 65.8569L26.716 72.6544ZM30.8671 65.8156L52.0459 77.446L47.8948 84.2848L26.716 72.6544L30.8671 65.8156ZM22.7964 65.8569C25.321 64.4705 28.3891 64.4548 30.8671 65.8156L26.716 72.6544L22.7964 65.8569ZM7.64682 87.6854C2.21478 84.7024 2.34402 77.0884 7.87832 74.0492L11.7979 80.8467L11.7979 80.8467L7.64682 87.6854ZM30.7718 95.9112C28.2472 97.2976 25.179 97.3133 22.7011 95.9525L26.8522 89.1138L26.8522 89.1138L30.7718 95.9112ZM45.9042 80.9642C45.9042 82.3447 46.6608 83.6071 47.8948 84.2848L52.0459 77.446C53.2901 78.1293 54.053 79.4022 54.053 80.7942L45.9042 80.9642ZM54.053 80.7942C54.053 82.2323 53.2391 83.5732 51.9296 84.2923L48.01 77.4949C46.7114 78.208 45.9042 79.5379 45.9042 80.9642L54.053 80.7942Z" fill="#F0F0F0" mask="url(#path-7-inside-4_64_42)"/>
<mask id="path-9-inside-5_64_42" fill="white">
<path fill-rule="evenodd" clip-rule="evenodd" d="M50.0297 80.8654C50.0246 80.8682 50.0214 80.8735 50.0214 80.8792C50.0214 80.8851 50.0248 80.8906 50.0302 80.8936L71.188 92.5125C72.4503 93.2057 73.9844 93.2135 75.2234 92.5332L90.2777 84.266C92.9937 82.7745 92.929 78.9675 90.1619 77.448L75.2438 69.2557C73.9816 68.5625 72.4475 68.5546 71.2085 69.235L50.0297 80.8654Z"/>
</mask>
<path d="M50.0302 80.8936L48.0704 84.2923L50.0302 80.8936ZM73.1478 89.1138L51.99 77.4949L48.0704 84.2923L69.2282 95.9112L73.1478 89.1138ZM88.2021 80.8467L73.1478 89.1138L77.2989 95.9525L92.3532 87.6854L88.2021 80.8467ZM73.284 72.6544L88.2021 80.8467L92.1217 74.0492L77.2036 65.8569L73.284 72.6544ZM69.133 65.8156L47.9541 77.446L52.1052 84.2848L73.284 72.6544L69.133 65.8156ZM77.2036 65.8569C74.6791 64.4706 71.6109 64.4548 69.133 65.8156L73.284 72.6544L77.2036 65.8569ZM92.3532 87.6854C97.7852 84.7024 97.656 77.0884 92.1217 74.0492L88.2021 80.8467L88.2021 80.8467L92.3532 87.6854ZM69.2282 95.9112C71.7528 97.2976 74.821 97.3133 77.2989 95.9525L73.1478 89.1138L73.1478 89.1138L69.2282 95.9112ZM54.0958 80.9642C54.0958 82.3447 53.3392 83.6071 52.1052 84.2848L47.9541 77.446C46.7099 78.1293 45.947 79.4022 45.947 80.7942L54.0958 80.9642ZM45.947 80.7942C45.947 82.2325 46.761 83.5733 48.0704 84.2923L51.99 77.4949C53.2885 78.208 54.0958 79.5378 54.0958 80.9642L45.947 80.7942Z" fill="#F0F0F0" mask="url(#path-9-inside-5_64_42)"/>
<mask id="path-11-inside-6_64_42" fill="white">
<path fill-rule="evenodd" clip-rule="evenodd" d="M76.7797 36.7968C76.7797 36.7905 76.7832 36.7847 76.7887 36.7817C76.7938 36.7788 76.8001 36.7788 76.8052 36.7817L97.9254 48.3799C99.2049 49.0825 100 50.4263 100 51.886L100 68.2432C100 71.2845 96.7404 73.2133 94.0746 71.7493L78.8543 63.3911C77.5749 62.6884 76.7797 61.3447 76.7797 59.885L76.7797 36.7968Z"/>
</mask>
<path d="M94.0746 71.7493L96 68.2432L94.0746 71.7493ZM76.8052 36.7817L74.8798 40.2878L76.8052 36.7817ZM96 51.886L74.8798 40.2878L78.7306 33.2756L99.8508 44.8738L96 51.886ZM96 68.2432L96 51.886L104 51.886L104 68.2432L96 68.2432ZM80.7797 59.885L96 68.2432L92.1492 75.2555L76.9289 66.8972L80.7797 59.885ZM72.7797 59.885L72.7797 36.7968L80.7797 36.7968L80.7797 59.885L72.7797 59.885ZM76.9289 66.8972C74.37 65.4919 72.7797 62.8043 72.7797 59.885L80.7797 59.885L76.9289 66.8972ZM104 68.2432C104 74.3258 97.4807 78.1833 92.1492 75.2555L96 68.2432L96 68.2432L104 68.2432ZM99.8508 44.8738C102.41 46.279 104 48.9666 104 51.886L96 51.886V51.886L99.8508 44.8738ZM78.7141 40.2878C79.9883 39.588 80.7797 38.2498 80.7797 36.7968L72.7797 36.7968C72.7797 35.3311 73.578 33.9814 74.8633 33.2756L78.7141 40.2878ZM74.8633 33.2756C76.0675 32.6143 77.5262 32.6142 78.7306 33.2756L74.8798 40.2878C76.0739 40.9435 77.5201 40.9434 78.7141 40.2878L74.8633 33.2756Z" fill="#F0F0F0" mask="url(#path-11-inside-6_64_42)"/>
<path d="M49.0502 40.4371C49.6498 40.1078 50.376 40.1078 50.9756 40.4371L59.3506 45.0363C59.9903 45.3876 60.3879 46.0595 60.3879 46.7893V55.6472C60.3879 56.377 59.9903 57.0489 59.3506 57.4002L50.9756 61.9994C50.376 62.3286 49.6498 62.3286 49.0502 61.9994L40.6752 57.4002C40.0355 57.0489 39.6379 56.377 39.6379 55.6472V46.7893C39.6379 46.0595 40.0355 45.3876 40.6752 45.0363L49.0502 40.4371Z" stroke="#F0F0F0" stroke-width="4"/>
</svg>
