<svg width="60" height="60" viewBox="0 0 60 60" fill="none" xmlns="http://www.w3.org/2000/svg">
<g clip-path="url(#clip0_78_46)">
<path d="M38.9872 58.916C38.8827 60.0308 38.3374 61.0682 37.4587 61.8243C36.5799 62.58 35.4319 62.9996 34.24 63H25.7656C24.5741 63 23.4257 62.5807 22.5469 61.8246C21.6682 61.0686 21.1229 60.0308 21.0188 58.916C21 58.7281 20.9953 58.5396 21.0047 58.3514C21.0192 57.9684 21.0865 57.5887 21.2051 57.2219L22.9242 50.6706C23.1744 49.8973 23.6824 49.2202 24.3741 48.7392C25.0653 48.2583 25.9034 47.9991 26.7637 48H33.232C34.0928 47.9991 34.9304 48.2583 35.6221 48.7392C36.3133 49.2202 36.8218 49.8973 37.0715 50.6706L38.7911 57.2219C38.9097 57.5887 38.977 57.9684 38.9915 58.3514C39.004 58.5392 39.0028 58.7281 38.9872 58.916Z" fill="url(#paint0_linear_78_46)"/>
<path d="M38.9825 60H21.0188C21 59.0019 20.9953 58 21.0047 57H38.9946C39.0048 58 39.0005 59.0019 38.9825 60Z" fill="#ED5F00"/>
<path d="M29.9795 48.2196L29.9415 48.301C29.8625 48.4739 29.8005 48.6614 29.7575 48.8582C29.7039 49.0872 29.6768 49.327 29.6775 49.5683V55.9792C29.6592 56.2585 29.5677 56.5179 29.4219 56.7066C29.2758 56.8954 29.0853 57 28.8881 57H24.7931C24.6755 57.0001 24.5596 56.963 24.4531 56.8915C24.3471 56.8199 24.2535 56.7157 24.179 56.5864C24.1047 56.4571 24.0515 56.3059 24.023 56.1437C23.9949 55.9815 23.9925 55.8125 24.0159 55.6488L24.8487 49.8914C24.9263 49.3573 25.131 48.8775 25.4283 48.533C25.7258 48.1885 26.0977 48.0003 26.4813 48.0002H29.8998C29.9181 47.9988 29.9361 48.005 29.952 48.018C29.9679 48.0309 29.9808 48.0502 29.9893 48.0733C29.9978 48.0965 30.0015 48.1226 29.9995 48.1485C29.9978 48.1744 29.991 48.1992 29.9795 48.2196Z" fill="#FF8C19"/>
<path d="M30 48.0136C29.9346 48.2663 29.9015 48.5311 29.9023 48.7974V55.8733C29.8799 56.1816 29.7681 56.4678 29.5901 56.6762C29.4116 56.8846 29.1789 57 28.9379 57H24.3125C24.1912 56.8605 24.1001 56.6827 24.0483 56.4842C23.9966 56.2856 23.9862 56.0732 24.0181 55.8678L24.8785 50.0547C25.0905 48.6069 25.7563 48 26.7016 48L30 48.0136Z" fill="#FFE75C"/>
<path d="M23.562 17.1622L23.6603 14.7364C23.7155 13.3793 24.7798 12.1878 26.0399 12.0775L32.5174 11.5041C34.9934 11.2855 36.2682 12.5901 38.1534 15.5019L23.562 17.1622Z" fill="#66BCFF"/>
<path d="M7.90475 29.2075C7.8208 31.9149 9.13133 34.1877 10.8836 34.4958C10.958 34.5133 11.0343 34.5238 11.1111 34.5271L11.1521 34.5221L11.193 34.517C12.5571 34.4813 13.7053 32.2474 13.8049 29.4401C13.9051 26.6327 12.8738 24.308 11.5185 24.1607L11.4675 24.167L11.4359 24.1709C11.3587 24.1751 11.2821 24.1846 11.2056 24.1994C9.43891 24.3373 7.9898 26.5034 7.90475 29.2075Z" fill="#FFE75C"/>
<path d="M50.7959 30.4641C50.691 33.6254 50.3527 38.82 46.595 41.0371C44.6752 42.1699 41.4532 43.072 36.9739 43.8531C36.6785 43.8896 34.412 43.6031 34.412 43.6031L27.2357 43.3219C27.2357 43.3219 27.6766 44.887 25.412 44.7472C21.4692 44.507 17.8503 43.7265 16.0351 42.793C14.3909 41.9468 11.5263 40.202 10.633 37.1291C10.1059 35.3473 9.95232 32.6657 10.0592 29.4657C10.14 26.8647 10.5065 24.2808 11.1523 21.7606C11.6988 19.6571 13.7703 17.8093 15.8157 17.1297C20.1418 15.6665 24.6297 14.7347 29.1804 14.3547C33.4795 13.9918 37.8061 14.1045 42.0815 14.6908C46.8305 15.3526 49.3066 18.6705 49.9814 20.6266C51.1173 23.8583 50.9042 27.3024 50.7959 30.4641Z" fill="url(#paint1_linear_78_46)"/>
<path d="M36.974 43.8534C35.5292 44.1019 33.9539 44.3375 32.2475 44.5601C29.9846 44.8363 27.7006 44.8984 25.4255 44.7458C24.5174 44.1233 23.7339 43.3348 23.1172 42.4216C22.6199 41.6749 23.267 41.2067 23.8891 41.2417L24.5917 41.2773C26.9962 41.3355 29.4028 41.2332 31.7936 40.9712L32.9555 40.8275C34.0653 40.7708 34.5978 41.0408 35.0922 41.8192C35.8269 42.9912 36.2554 43.407 36.974 43.8534Z" fill="#FFE75C"/>
<path d="M43.5634 26.8492C43.5147 28.4795 43.2771 30.0985 42.8547 31.6733C42.6499 32.4052 42.2749 33.0777 41.7601 33.6353C41.2454 34.1929 40.6054 34.6195 39.893 34.8799C37.7565 35.6443 33.965 36.6832 28.2748 37.1278C22.5839 37.5724 19.0844 37.0466 16.981 36.6664L16.8594 36.643C14.5867 36.1893 13.9238 34.6936 14.0004 31.0495C14.077 27.4055 14.4111 24.94 14.7482 23.6845C15.1457 22.2116 15.725 21.1395 17.1575 20.5881C19.7694 19.6041 22.9448 18.5784 28.641 18.182C34.4623 17.7772 38.1171 18.2034 40.2162 18.6365C41.6169 18.9252 42.7194 19.7963 43.0402 21.2049L43.0546 21.3221C43.4608 23.135 43.6318 24.9927 43.5634 26.8492Z" fill="#ED5F00"/>
<path d="M43.5633 26.8492C43.5146 28.4795 43.277 30.0985 42.8546 31.6733C42.6499 32.4052 42.2755 33.0777 41.7601 33.6353C41.2453 34.1929 40.6053 34.6195 39.893 34.8799C37.7565 35.6443 33.965 36.6832 28.2747 37.1278C22.5838 37.5724 19.0844 37.0466 16.9809 36.6664L16.8594 36.643C16.0229 35.8333 15.7535 34.4149 15.8033 32.0825C15.8831 28.5745 16.1953 26.2131 16.5196 24.9976C16.8997 23.5829 17.4566 22.5556 18.8207 22.0406C21.3322 21.0935 24.3795 20.1081 29.8515 19.729C35.4408 19.3388 38.9544 19.7476 40.9641 20.1637C41.772 20.3069 42.5079 20.7218 43.05 21.3401C43.4561 23.147 43.6284 24.9986 43.5633 26.8492Z" fill="black"/>
<path d="M23.6729 27.2709C24.203 26.6937 24.2103 25.8377 23.6909 25.3586C23.1707 24.8796 22.3201 24.9591 21.7907 25.5361C21.2613 26.1131 21.2533 26.9693 21.7728 27.4484C22.2929 27.9274 23.1436 27.8479 23.6729 27.2709Z" fill="#57F287"/>
<path d="M36.4655 26.4088C36.9949 25.8318 37.0029 24.9756 36.4834 24.4965C35.9633 24.0175 35.1126 24.097 34.5832 24.674C34.0539 25.251 34.0458 26.1072 34.5653 26.5863C35.0855 27.0653 35.9361 26.9858 36.4655 26.4088Z" fill="#57F287"/>
<path d="M24.9488 28.888C24.9173 29.4105 24.9983 29.9338 25.1869 30.4221C25.3754 30.9104 25.6673 31.3522 26.0418 31.7173C26.4163 32.0825 26.8648 32.3624 27.3569 32.538C27.8491 32.7135 28.3736 32.7806 28.8942 32.7345C30.0093 32.6371 31.0515 32.1384 31.8285 31.3306C32.6048 30.5227 33.0633 29.4603 33.1191 28.3397L24.9488 28.888Z" fill="#57F287"/>
<path d="M53.1672 27.9041C53.2523 25.2 51.9411 22.9274 50.1895 22.6192C50.1149 22.6005 50.0385 22.5889 49.9616 22.5844L49.9132 22.5904C49.8996 22.5905 49.8855 22.5923 49.8722 22.5955C48.5078 22.6277 47.3602 24.8615 47.26 27.6689C47.1604 30.4762 48.191 32.801 49.5468 32.9517L49.5985 32.9453L49.6294 32.9415C49.707 32.9407 49.7842 32.9311 49.8597 32.913C51.6331 32.7742 53.0833 30.6116 53.1672 27.9041Z" fill="#FFE75C"/>
</g>
<defs>
<linearGradient id="paint0_linear_78_46" x1="30.002" y1="69.7961" x2="30.002" y2="41.8607" gradientUnits="userSpaceOnUse">
<stop offset="0.12" stop-color="#FFC619"/>
<stop offset="0.2" stop-color="#FFBB19"/>
<stop offset="0.33" stop-color="#FF9F19"/>
<stop offset="0.41" stop-color="#FF8C19"/>
<stop offset="0.83" stop-color="#ED5F00"/>
</linearGradient>
<linearGradient id="paint1_linear_78_46" x1="27.8945" y1="14.6256" x2="35.8756" y2="60.5277" gradientUnits="userSpaceOnUse">
<stop stop-color="#FFC619"/>
<stop offset="0.12" stop-color="#FFBB19"/>
<stop offset="0.32" stop-color="#FF9F19"/>
<stop offset="0.44" stop-color="#FF8C19"/>
<stop offset="0.54" stop-color="#F87A0F"/>
<stop offset="0.73" stop-color="#ED5F00"/>
</linearGradient>
<clipPath id="clip0_78_46">
<rect width="60" height="60" fill="white"/>
</clipPath>
</defs>
</svg>
